<svg width="61" height="61" viewBox="0 0 61 61" fill="none" xmlns="http://www.w3.org/2000/svg">
<g clip-path="url(#clip0_66_4629)">
<path d="M13.1556 0.273438H46.8756C54.1328 0.273438 60.0156 6.15625 60.0156 13.4134V47.1334C60.0156 54.3906 54.1328 60.2734 46.8756 60.2734H13.1556C5.89844 60.2734 0.015625 54.3906 0.015625 47.1334V13.4134C0.015625 6.15625 5.89844 0.273438 13.1556 0.273438Z" fill="url(#paint0_linear_66_4629)"/>
<path d="M19.6844 43.8791L19.69 43.8809L17.6385 47.4341C16.8897 48.7311 15.2313 49.1755 13.9342 48.4266C12.6374 47.6778 12.1928 46.0194 12.9416 44.7223L14.4529 42.1048L14.598 41.8536C14.857 41.4814 15.4961 40.8387 16.7746 40.9597C16.7746 40.9597 19.7833 41.2862 20.001 42.8499C20.001 42.8499 20.0306 43.3644 19.6844 43.8791ZM48.7804 34.8041H42.3834C41.9477 34.7748 41.7576 34.6191 41.6826 34.5287L41.6779 34.5205L34.8302 22.6597L34.8213 22.6655L34.4106 22.0768C33.7375 21.0474 32.6688 23.6799 32.6688 23.6799C31.3926 26.6134 32.8499 29.9483 33.3578 30.9563L42.8692 47.4305C43.6178 48.7273 45.2763 49.172 46.5735 48.4229C47.8703 47.6741 48.3149 46.0156 47.5659 44.7186L45.1877 40.5992C45.1415 40.4994 45.0613 40.2284 45.5491 40.2273H48.7804C50.2781 40.2273 51.4921 39.0132 51.4921 37.5155C51.4921 36.0179 50.2781 34.8038 48.7804 34.8038V34.8041ZM36.3552 38.4903C36.3552 38.4903 36.6967 40.2273 35.3756 40.2273H11.7273C10.2297 40.2273 9.01562 39.0132 9.01562 37.5155C9.01562 36.0179 10.2297 34.8038 11.7273 34.8038H17.807C18.7886 34.7471 19.0211 34.1804 19.0211 34.1804L19.0267 34.1832L26.9627 20.4376L26.9603 20.4371C27.1049 20.1716 26.9845 19.9205 26.9636 19.8809L24.3426 15.3413C23.5938 14.0445 24.0381 12.3859 25.3352 11.6373C26.6322 10.8884 28.2906 11.3326 29.0395 12.6296L30.2549 14.735L31.4683 12.6334C32.2171 11.3366 33.8756 10.8919 35.1726 11.641C36.4696 12.3898 36.914 14.048 36.1652 15.3451L25.1219 34.4724C25.0736 34.5889 25.0588 34.7717 25.4181 34.8038H32.0191L32.0205 34.8683C32.0205 34.8683 35.8356 34.9276 36.3552 38.4903Z" fill="white"/>
</g>
<defs>
<linearGradient id="paint0_linear_66_4629" x1="30.0156" y1="0.273438" x2="30.0156" y2="60.2734" gradientUnits="userSpaceOnUse">
<stop stop-color="#17C9FB"/>
<stop offset="1" stop-color="#1A74E8"/>
</linearGradient>
<clipPath id="clip0_66_4629">
<rect width="60" height="60" fill="white" transform="translate(0.015625 0.273438)"/>
</clipPath>
</defs>
</svg>
