<svg width="150" height="61" viewBox="0 0 150 61" fill="none" xmlns="http://www.w3.org/2000/svg">
<g clip-path="url(#clip0_66_4663)">
<path d="M0.128906 0.273438V4.37451H29.2977V0.273438H0.128906ZM33.4304 0.273438V4.37451H74.9972C74.9972 4.37451 70.7512 0.273438 65.1279 0.273438H33.4304ZM83.1513 0.273438V4.37451H108.299L106.806 0.273438H83.1513ZM126.328 0.273438L124.835 4.37451H149.754V0.273438H126.328ZM0.128906 8.24905V12.3501H29.2977V8.24905H0.128906ZM33.4304 8.2549V12.3501H79.8206C79.8206 12.3501 79.2789 9.19383 78.3338 8.2549H33.4304ZM83.1513 8.2549V12.3501H111.056L109.674 8.2549H83.1513ZM123.343 8.2549L121.961 12.3501H149.754V8.2549H123.343ZM8.51134 16.2247V20.331H21.1435V16.2247H8.51134ZM41.8128 16.2247V20.331H54.445V16.2247H41.8128ZM66.7318 16.2247V20.331H79.364C79.364 20.331 80.166 18.1622 80.166 16.2244H66.7318V16.2247ZM91.5338 16.2247V20.331H113.93L112.437 16.2244H91.5338V16.2247ZM120.591 16.2247L119.093 20.3313H141.6V16.2247H120.591ZM8.51134 24.2061V28.3066H21.1435V24.2061H8.51134ZM41.8128 24.2061V28.3066H74.0782C74.0782 28.3066 76.7773 26.2022 77.6372 24.2055H41.8128V24.2061ZM91.5338 24.2061V28.3066H104.166V26.0237L104.968 28.3066H128.107L128.968 26.0237V28.3066H141.6V24.2061H117.887L116.628 27.68L115.364 24.2061H91.5338ZM8.51134 32.1811V36.2822H21.1435V32.1811H8.51134ZM41.8128 32.1811V36.2822H77.6372C76.777 34.292 74.0782 32.1811 74.0782 32.1811H41.8128ZM91.5338 32.1811V36.2822H104.166V32.1811H91.5338ZM106.461 32.1811L107.988 36.2822H125.339L126.79 32.1811H106.461ZM128.968 32.1811V36.2822H141.6V32.1811H128.968ZM8.51134 40.1568V44.2578H21.1435V40.1568H8.51134ZM41.8128 40.1568V44.2578H54.445V40.1568H41.8128ZM66.7318 40.1568V44.2578H80.166C80.166 42.3223 79.364 40.1568 79.364 40.1568H66.7318ZM91.5338 40.1568V44.2578H104.166V40.1568H91.5338ZM109.329 40.1568L110.81 44.2578H122.441L123.934 40.1568H109.329ZM128.968 40.1568V44.2578H141.6V40.1568H128.968ZM0.357199 48.1327V52.2393H29.526V48.1324H0.357199V48.1327ZM33.4304 48.1327V52.2393H78.3338C79.2789 51.2989 79.8206 48.1324 79.8206 48.1324H33.4304V48.1327ZM83.3796 48.1327V52.2393H104.166V48.1324H83.3796V48.1327ZM112.203 48.1327L113.725 52.2393H119.643L121.071 48.1324H112.203V48.1327ZM128.968 48.1327V52.2393H149.983V48.1324H128.968V48.1327ZM0.357199 56.1138V60.2149H29.526V56.1138H0.357199ZM33.4304 56.1138V60.2088H65.1279C70.7512 60.2088 74.9972 56.1135 74.9972 56.1135H33.4304V56.1138ZM83.3796 56.1138V60.2149H104.166V56.1138H83.3796ZM115.089 56.1138L116.552 60.2029L116.804 60.2088L118.291 56.1135H115.089V56.1138ZM128.968 56.1138V60.2149H149.983V56.1138H128.968Z" fill="#1F70C1"/>
</g>
<defs>
<clipPath id="clip0_66_4663">
<rect width="149.854" height="60" fill="white" transform="translate(0.128906 0.273438)"/>
</clipPath>
</defs>
</svg>
