<svg width="61" height="66" viewBox="0 0 61 66" fill="none" xmlns="http://www.w3.org/2000/svg">
<g clip-path="url(#clip0_66_4656)">
<path d="M55.9196 53.2241C55.4672 56.586 53.2048 59.4951 50.0375 60.7879C48.4859 61.4336 46.8054 61.6281 45.1245 61.4336C43.5087 61.24 41.8925 60.7227 40.212 59.7541C37.8846 58.4598 35.5575 56.4569 32.8428 53.4831C37.1093 48.2472 39.6943 43.4636 40.6643 39.198C41.1169 37.1938 41.1814 35.3837 40.9878 33.7028C40.7295 32.087 40.1475 30.5997 39.2421 29.3071C37.2382 26.3985 33.8773 24.7176 30.128 24.7176C26.3787 24.7176 23.0175 26.4632 21.0136 29.3071C20.1082 30.5999 19.5272 32.087 19.2682 33.7028C19.01 35.3837 19.0744 37.2583 19.5917 39.1982C20.5611 43.4634 23.2111 48.3119 27.4132 53.5469C24.7629 56.5213 22.3711 58.525 20.0438 59.818C18.3633 60.7879 16.7471 61.3052 15.1313 61.4983C13.4656 61.6843 11.7796 61.4627 10.2186 60.8526C7.05097 59.5598 4.78902 56.6498 4.33621 53.2886C4.14261 51.673 4.27175 50.0573 4.91816 48.2472C5.11175 47.6003 5.43543 46.9551 5.75816 46.1788C6.21097 45.145 6.72824 44.0453 7.2448 42.9461L7.30996 42.8177C11.7696 33.1855 16.5535 23.3603 21.5309 13.7938L21.7247 13.4052C22.242 12.4366 22.7586 11.4027 23.2763 10.4327C23.7931 9.39812 24.3748 8.42828 25.0857 7.58734C26.4432 6.03578 28.2532 5.19555 30.2571 5.19555C32.261 5.19555 34.0709 6.03578 35.4284 7.58758C36.1395 8.42828 36.7212 9.39812 37.2385 10.4329C37.7557 11.4027 38.2723 12.4366 38.7896 13.4052L38.9841 13.7938C43.8964 23.4248 48.6802 33.25 53.1403 42.8821V42.9461C53.6576 43.9806 54.1097 45.145 54.627 46.1788C54.9504 46.9551 55.2734 47.6001 55.467 48.2472C55.9842 49.9277 56.1781 51.5444 55.9198 53.2241H55.9196ZM30.128 50.1857C26.6377 45.7907 24.3748 41.6533 23.5993 38.1637C23.2765 36.6766 23.2111 35.3837 23.4057 34.2201C23.5346 33.1855 23.9229 32.2802 24.4393 31.5039C25.6676 29.7602 27.736 28.6593 30.128 28.6593C32.5198 28.6593 34.6528 29.6945 35.8163 31.5039C36.3331 32.2802 36.7212 33.1855 36.8503 34.2201C37.0442 35.3837 36.9795 36.741 36.6565 38.1637C35.881 41.5893 33.6183 45.7262 30.128 50.1857ZM59.281 46.8248C58.958 46.049 58.6346 45.209 58.3116 44.4979C57.7943 43.3349 57.2771 42.2352 56.8245 41.2007L56.7598 41.1367C52.3001 31.4399 47.5163 21.6147 42.4742 11.92L42.2806 11.5309C41.7633 10.5613 41.246 9.5268 40.7295 8.49273C40.0826 7.32859 39.436 6.10164 38.4021 4.93727C36.3328 2.35164 33.36 0.929688 30.1922 0.929688C26.9602 0.929688 24.0516 2.35164 21.9181 4.80859C20.9489 5.9718 20.2378 7.19992 19.5914 8.3643C19.0742 9.39812 18.5569 10.4327 18.0399 11.4027L17.8461 11.7895C12.8691 21.4855 8.02082 31.3115 3.56043 41.0076L3.49597 41.1367C3.04316 42.1705 2.52589 43.2691 2.00863 44.4334C1.66282 45.1995 1.33963 45.9757 1.03949 46.7608C0.198786 49.1519 -0.0594956 51.4148 0.263473 53.7414C0.975036 58.5897 4.20707 62.6627 8.66722 64.472C10.3475 65.1836 12.0928 65.5066 13.9032 65.5066C14.4202 65.5066 15.0666 65.4419 15.5839 65.3767C17.7167 65.1177 19.9144 64.408 22.0472 63.1792C24.698 61.6926 27.2192 59.5598 30.0631 56.4569C32.907 59.5598 35.4928 61.6928 38.0785 63.1792C40.212 64.408 42.4095 65.1177 44.5425 65.3767C45.0598 65.4419 45.7062 65.5066 46.2232 65.5066C48.0333 65.5066 49.8429 65.1836 51.4592 64.472C55.984 62.6627 59.1514 58.5252 59.8625 53.7414C60.3797 51.4785 60.1207 49.2173 59.2807 46.8245L59.281 46.8248Z" fill="#E0565B"/>
</g>
<defs>
<clipPath id="clip0_66_4656">
<rect width="60" height="64.6875" fill="white" transform="translate(0.128906 0.929688)"/>
</clipPath>
</defs>
</svg>
