<svg width="61" height="71" viewBox="0 0 61 71" fill="none" xmlns="http://www.w3.org/2000/svg">
<g clip-path="url(#clip0_66_4644)">
<path d="M18.388 0.201022C18.0446 0.203235 17.7071 0.290953 17.406 0.456257C16.4174 1.00423 16.0548 2.2743 16.6026 3.26219L18.8345 7.29251C13.457 10.6195 9.89383 16.3026 9.89383 22.7889V23.9941C8.86094 22.8058 7.34289 22.0556 5.64672 22.0556C2.53891 22.0556 0.015625 24.5788 0.015625 27.6864V45.0323C0.015625 48.1396 2.53914 50.6631 5.64672 50.6631C7.34289 50.6631 8.86094 49.9127 9.89359 48.7244V51.1542C9.89359 54.43 12.5741 57.1103 15.85 57.1103H17.3612V64.8267C17.3612 67.9345 19.8848 70.4577 22.9923 70.4577C26.0999 70.4577 28.6232 67.9342 28.6232 64.8267V57.1103H31.2379V64.8267C31.2379 67.9345 33.7614 70.4577 36.869 70.4577C39.9766 70.4577 42.4998 67.9342 42.4998 64.8267V57.1103H44.0113C47.287 57.1103 49.9675 54.43 49.9675 51.1542V48.7244C51.0002 49.9127 52.5184 50.6631 54.2146 50.6631C57.3222 50.6631 59.8455 48.1396 59.8455 45.0323V27.6864C59.8455 24.5788 57.3222 22.0556 54.2146 22.0556C52.5184 22.0556 51.0002 22.8058 49.9675 23.9941V22.9928V22.9354C49.968 22.8745 49.9675 22.8257 49.9675 22.7889C49.9675 16.3038 46.3961 10.6263 41.0205 7.29907L43.2588 3.26219C43.8062 2.2743 43.4439 1.00423 42.4553 0.456257C42.1542 0.290953 41.8167 0.203235 41.4733 0.201022C40.7432 0.193991 40.0267 0.578835 39.6494 1.25969L37.3089 5.48782C35.0205 4.64337 32.5305 4.18048 29.9308 4.18048C27.3334 4.18048 24.8387 4.63844 22.5522 5.48126L20.212 1.25969C19.8344 0.578835 19.1181 0.19446 18.388 0.201022Z" fill="white"/>
<path d="M5.64852 23.5225C3.32961 23.5225 1.48438 25.3677 1.48438 27.6866V45.0325C1.48438 47.3514 3.32961 49.1966 5.64852 49.1966C7.96742 49.1966 9.81289 47.3514 9.81289 45.0325V27.6866C9.81289 25.3677 7.96742 23.5225 5.64852 23.5225ZM54.2166 23.5225C51.8975 23.5225 50.0523 25.3677 50.0523 27.6866V45.0325C50.0523 47.3514 51.8975 49.1966 54.2166 49.1966C56.5355 49.1966 58.3808 47.3514 58.3808 45.0325V27.6866C58.3808 25.3677 56.5355 23.5225 54.2166 23.5225Z" fill="#A4C639"/>
<path d="M22.9925 43.3167C20.6736 43.3167 18.8281 45.1619 18.8281 47.481V64.8267C18.8281 67.1456 20.6736 68.9908 22.9925 68.9908C25.3114 68.9908 27.1566 67.1456 27.1566 64.8267V47.481C27.1566 45.1619 25.3114 43.3167 22.9925 43.3167ZM36.8691 43.3167C34.55 43.3167 32.7048 45.1619 32.7048 47.481V64.8267C32.7048 67.1456 34.55 68.9908 36.8691 68.9908C39.188 68.9908 41.0333 67.1456 41.0333 64.8267V47.481C41.0333 45.1619 39.188 43.3167 36.8691 43.3167Z" fill="#A4C639"/>
<path d="M18.3995 1.66805C18.301 1.66924 18.2045 1.69554 18.119 1.74446C17.822 1.90899 17.7245 2.25024 17.8893 2.54789L20.823 7.84735C15.1792 10.7841 11.3669 16.3648 11.3594 22.7698H48.4996C48.4919 16.3648 44.6798 10.7838 39.036 7.84735L41.9695 2.54813C42.1345 2.25047 42.0367 1.90899 41.7398 1.74446C41.6543 1.69551 41.5577 1.66921 41.4592 1.66805C41.2483 1.66571 41.0488 1.77118 40.9363 1.97414L37.9645 7.33078C35.5335 6.25266 32.8068 5.64727 29.9294 5.64727C27.052 5.64727 24.3255 6.25243 21.8943 7.33078L18.9224 1.97414C18.8717 1.88012 18.7962 1.80183 18.704 1.74785C18.6118 1.69386 18.5066 1.66626 18.3998 1.66805H18.3995ZM11.3594 24.2365V51.1544C11.3581 51.7444 11.4734 52.3287 11.6985 52.8739C11.9237 53.4192 12.2544 53.9146 12.6715 54.3317C13.0886 54.7488 13.5841 55.0794 14.1293 55.3046C14.6746 55.5297 15.2589 55.645 15.8488 55.6437H44.0102C44.6001 55.645 45.1845 55.5297 45.7297 55.3046C46.275 55.0794 46.7704 54.7488 47.1876 54.3316C47.6047 53.9145 47.9354 53.4191 48.1605 52.8738C48.3857 52.3285 48.5009 51.7441 48.4996 51.1542V24.2367H11.3594V24.2365Z" fill="#A4C639"/>
<path d="M21.3583 12.8726C20.5105 12.8726 19.8086 13.5743 19.8086 14.422C19.8086 15.27 20.5105 15.9717 21.3583 15.9717C22.2062 15.9717 22.908 15.27 22.908 14.422C22.908 13.5743 22.2062 12.8726 21.3583 12.8726ZM38.5 12.8726C37.652 12.8726 36.9503 13.5743 36.9503 14.422C36.9503 15.27 37.652 15.9717 38.5 15.9717C39.3477 15.9717 40.0497 15.27 40.0497 14.422C40.0497 13.5743 39.3477 12.8726 38.5 12.8726Z" fill="white"/>
</g>
<defs>
<clipPath id="clip0_66_4644">
<rect width="60" height="70.5469" fill="white" transform="translate(0.015625)"/>
</clipPath>
</defs>
</svg>
