<svg width="73" height="61" viewBox="0 0 73 61" fill="none" xmlns="http://www.w3.org/2000/svg">
<g clip-path="url(#clip0_66_4651)">
<path d="M36.1549 0.273438C16.8197 0.273438 1.67152 24.8734 0.238281 45.6509C6.30589 56.1813 20.9377 60.1396 36.1555 60.1396C51.3721 60.1396 66.0048 56.1813 72.0693 45.6506C70.6357 24.8734 55.4895 0.273438 36.1552 0.273438" fill="#B6DEFF"/>
<path d="M67.0178 40.7017C67.0178 40.7017 62.7474 31.469 58.4068 26.0825C54.0632 20.6938 48.7587 14.8262 45.6223 14.8262C42.4877 14.8262 33.7249 30.3411 29.7049 30.3411C25.684 30.3411 23.5944 23.3079 18.6511 23.3079C13.7057 23.3079 5.8488 40.2681 5.8488 40.2681L5.31641 43.1434C5.31641 43.1434 8.04598 55.245 36.602 55.245C65.1592 55.245 67.4415 43.3419 67.4415 43.3419L67.0181 40.7014" fill="#66CC66"/>
<path d="M30.1521 36.9623C25.7172 36.9623 23.4437 32.5865 22.211 29.8854C21.1025 27.4521 20.9107 23.6104 17.7656 23.5028C18.0746 23.3803 18.3721 23.3079 18.651 23.3079C23.5944 23.3079 25.6839 30.3411 29.7048 30.3411C33.7248 30.3411 42.4876 14.8259 45.6222 14.8259C46.2129 14.8259 46.8783 15.0344 47.6003 15.4051C47.0662 15.3347 46.3814 15.3837 45.8538 15.913C44.8405 16.9265 35.6425 36.9623 30.1521 36.9623Z" fill="#17AD49"/>
</g>
<defs>
<clipPath id="clip0_66_4651">
<rect width="72.1127" height="60" fill="white" transform="translate(0.015625 0.273438)"/>
</clipPath>
</defs>
</svg>
